<?xml version="1.0" encoding="utf-8"?>
<!-- Generator: Adobe Illustrator 23.0.1, SVG Export Plug-In . SVG Version: 6.00 Build 0)  -->
<svg version="1.1" id="Слой_1" xmlns="http://www.w3.org/2000/svg" xmlns:xlink="http://www.w3.org/1999/xlink" x="0px" y="0px"
	 viewBox="0 0 48 48" style="enable-background:new 0 0 48 48;" xml:space="preserve">
<style type="text/css">
	.st0{fill:#54e890;}
</style>
<path id="Path_113" class="st0" d="M29.49,7.54c-0.58,0.58-0.58,1.51,0,2.09s1.51,0.58,2.09,0l0,0l4.59-4.59v8.59
	c0,7.12-5.77,12.89-12.88,12.9H17.6C8.85,26.56,1.76,33.65,1.76,42.4v4.09C1.74,47.3,2.38,47.98,3.2,48
	c0.82,0.02,1.49-0.62,1.52-1.44c0-0.03,0-0.05,0-0.08V42.4c0-7.12,5.77-12.88,12.88-12.9h5.69c8.75-0.01,15.84-7.11,15.84-15.86
	V5.05l4.59,4.59c0.57,0.58,1.5,0.58,2.08,0.01c0,0,0.01-0.01,0.01-0.01c0.28-0.28,0.43-0.65,0.44-1.04c0-0.39-0.16-0.77-0.44-1.04
	l-7.11-7.12c-0.57-0.58-1.5-0.58-2.08-0.01c0,0-0.01,0.01-0.01,0.01L29.49,7.54z"/>
</svg>
