<?xml version="1.0" encoding="utf-8"?>
<!-- Generator: Adobe Illustrator 23.0.1, SVG Export Plug-In . SVG Version: 6.00 Build 0)  -->
<svg version="1.1" id="Слой_1" xmlns="http://www.w3.org/2000/svg" xmlns:xlink="http://www.w3.org/1999/xlink" x="0px" y="0px"
	 viewBox="0 0 48 48" style="enable-background:new 0 0 48 48;" xml:space="preserve">
<style type="text/css">
	.st0{fill:#ff5d60;}
</style>
<path id="Path_114" class="st0" d="M29.46,40.46c-0.58-0.58-0.58-1.51,0-2.09c0.56-0.57,1.48-0.58,2.06-0.02
	c0.01,0.01,0.01,0.01,0.02,0.02l4.55,4.59v-8.59c0.02-7.09-5.7-12.85-12.79-12.89h-5.65C8.93,21.43,1.9,14.34,1.92,5.63V1.54
	C1.88,0.73,2.5,0.04,3.31,0c0.81-0.04,1.5,0.58,1.54,1.39c0,0.05,0,0.1,0,0.15v4.08c-0.02,7.09,5.7,12.85,12.79,12.89h5.65
	c8.71,0.04,15.75,7.13,15.72,15.85v8.6l4.55-4.59c0.56-0.57,1.48-0.58,2.06-0.02c0.01,0.01,0.01,0.01,0.02,0.02
	c0.28,0.28,0.43,0.65,0.43,1.04c0,0.39-0.15,0.77-0.43,1.04l-7.07,7.12c-0.56,0.57-1.48,0.58-2.06,0.02
	c-0.01-0.01-0.01-0.01-0.02-0.02L29.46,40.46z"/>
</svg>
