<svg width="24" height="26" viewBox="0 0 24 26" fill="none" xmlns="http://www.w3.org/2000/svg">
<path d="M4.18138 0.120321V8.87968H2.97216V0.120321H4.18138ZM7.1599 0.120321V1.07086H0V0.120321H7.1599Z" fill="white"/>
<path d="M15.4909 4.22326V4.77674C15.4909 5.43449 15.4039 6.02406 15.2299 6.54545C15.056 7.06685 14.8056 7.51003 14.4789 7.875C14.1522 8.23997 13.7597 8.51872 13.3015 8.71123C12.8475 8.90374 12.3384 9 11.7741 9C11.2267 9 10.7239 8.90374 10.2657 8.71123C9.81172 8.51872 9.41713 8.23997 9.08194 7.875C8.75099 7.51003 8.4943 7.06685 8.31185 6.54545C8.12941 6.02406 8.03819 5.43449 8.03819 4.77674V4.22326C8.03819 3.56551 8.12729 2.97794 8.30549 2.46056C8.48793 1.93917 8.74463 1.49599 9.07558 1.13102C9.40652 0.762032 9.79899 0.481283 10.253 0.28877C10.7112 0.0962567 11.214 0 11.7613 0C12.3256 0 12.8348 0.0962567 13.2888 0.28877C13.747 0.481283 14.1395 0.762032 14.4662 1.13102C14.7971 1.49599 15.0496 1.93917 15.2235 2.46056C15.4017 2.97794 15.4909 3.56551 15.4909 4.22326ZM14.2753 4.77674V4.21123C14.2753 3.68984 14.218 3.22861 14.1034 2.82754C13.9931 2.42647 13.8298 2.08957 13.6134 1.81684C13.397 1.54412 13.1318 1.33757 12.8178 1.19719C12.5081 1.05682 12.1559 0.986631 11.7613 0.986631C11.3795 0.986631 11.0337 1.05682 10.7239 1.19719C10.4185 1.33757 10.1554 1.54412 9.93477 1.81684C9.71838 2.08957 9.55078 2.42647 9.43198 2.82754C9.31318 3.22861 9.25378 3.68984 9.25378 4.21123V4.77674C9.25378 5.30214 9.31318 5.76738 9.43198 6.17246C9.55078 6.57353 9.7205 6.91243 9.94113 7.18917C10.166 7.4619 10.4312 7.66845 10.7367 7.80882C11.0464 7.9492 11.3922 8.01939 11.7741 8.01939C12.1729 8.01939 12.5272 7.9492 12.8369 7.80882C13.1466 7.66845 13.4076 7.4619 13.6197 7.18917C13.8361 6.91243 13.9995 6.57353 14.1098 6.17246C14.2201 5.76738 14.2753 5.30214 14.2753 4.77674Z" fill="white"/>
<path d="M20.7478 5.44452H18.2721V4.5H20.7478C21.2273 4.5 21.6155 4.42781 21.9125 4.28342C22.2095 4.13904 22.4259 3.9385 22.5617 3.68182C22.7017 3.42513 22.7717 3.13235 22.7717 2.80348C22.7717 2.50267 22.7017 2.21992 22.5617 1.95521C22.4259 1.69051 22.2095 1.47794 21.9125 1.31751C21.6155 1.15307 21.2273 1.07086 20.7478 1.07086H18.5585V8.87968H17.3302V0.120321H20.7478C21.4479 0.120321 22.0398 0.234626 22.5235 0.463235C23.0072 0.691845 23.3742 1.00869 23.6245 1.41377C23.8748 1.81484 24 2.27406 24 2.79144C24 3.35294 23.8748 3.83222 23.6245 4.22928C23.3742 4.62634 23.0072 4.92914 22.5235 5.1377C22.0398 5.34225 21.4479 5.44452 20.7478 5.44452Z" fill="white"/>
<path d="M0 11H24" stroke="#C8D8DF" stroke-width="1.5"/>
<path d="M12 14V24M12 24L7 19.2M12 24L17 19.2" stroke="#C8D8DF" stroke-width="1.5"/>
</svg>
