<svg xmlns="http://www.w3.org/2000/svg" width="22.995" height="30" viewBox="0 0 22.995 30" fill="currentColor" class="ionicon">
  <g id="documents" transform="translate(-18.439 -4.557)">
    <path id="Контур_511" data-name="Контур 511" d="M40.992,7.151H38.839V5a.441.441,0,0,0-.442-.442H24.119a.429.429,0,0,0-.085.009h0a.444.444,0,0,0-.109.039l-.022.012a.443.443,0,0,0-.1.07L18.569,9.924a.431.431,0,0,0-.07.094l-.013.023a.452.452,0,0,0-.038.108v.006a.432.432,0,0,0-.008.081V31.522a.442.442,0,0,0,.442.442h2.153v2.152a.441.441,0,0,0,.442.442H40.992a.441.441,0,0,0,.442-.442V7.592a.441.441,0,0,0-.442-.442ZM23.678,6.064V9.8H19.946Zm-4.356,4.614h4.8a.441.441,0,0,0,.442-.442V9.552H34.38a.442.442,0,0,0,0-.883H24.561V5.44H37.956V31.08H19.322Zm21.228,23H21.916V31.963H38.4a.441.441,0,0,0,.442-.442V8.034H40.55Z" />
    <path id="Контур_512" data-name="Контур 512" d="M34.8,45.907H46.282a.442.442,0,1,0,0-.883H34.8a.442.442,0,1,0,0,.883Z" transform="translate(-11.903 -30.255)" />
    <path id="Контур_513" data-name="Контур 513" d="M34.8,57.993H46.282a.442.442,0,1,0,0-.883H34.8a.442.442,0,1,0,0,.883Z" transform="translate(-11.903 -39.292)" />
    <path id="Контур_514" data-name="Контур 514" d="M34.8,70.083H46.282a.442.442,0,0,0,0-.883H34.8a.442.442,0,1,0,0,.883Z" transform="translate(-11.903 -48.331)" />
    <path id="Контур_515" data-name="Контур 515" d="M34.8,82.164H46.282a.442.442,0,0,0,0-.883H34.8a.442.442,0,1,0,0,.883Z" transform="translate(-11.903 -57.363)" />
    <path id="Контур_516" data-name="Контур 516" d="M34.8,94.25H46.282a.442.442,0,0,0,0-.883H34.8a.442.442,0,1,0,0,.883Z" transform="translate(-11.903 -66.399)" />
    <path id="Контур_517" data-name="Контур 517" d="M34.8,33.821H46.282a.442.442,0,0,0,0-.883H34.8a.442.442,0,1,0,0,.883Z" transform="translate(-11.903 -21.219)" />
  </g>
</svg>
