<svg width="15" height="8" viewBox="0 0 15 8" fill="none" xmlns="http://www.w3.org/2000/svg">
<path d="M14.7854 7.81417C14.6664 7.93316 14.505 8 14.3366 8C14.1683 8 14.0069 7.93316 13.8879 7.81417L7.48115 1.40743L1.07504 7.81417C0.955275 7.92951 0.795032 7.99324 0.628766 7.99168C0.462499 7.99011 0.303486 7.92337 0.185912 7.80579C0.068339 7.68822 0.00159432 7.52921 2.82005e-05 7.36294C-0.00153792 7.19667 0.0621996 7.03643 0.177537 6.91666L6.9107 0.186C6.98456 0.111989 7.07559 0.0574118 7.17567 0.0271364C7.27576 -0.00313941 7.38178 -0.00817004 7.48428 0.0124908C7.58673 -0.00803938 7.69268 -0.00288191 7.79265 0.0275031C7.89263 0.0578881 7.98353 0.112556 8.05723 0.186625L14.7854 6.91666C14.9044 7.03569 14.9712 7.19711 14.9712 7.36542C14.9712 7.53372 14.9044 7.69514 14.7854 7.81417Z" fill="white"/>
</svg>
