<svg width="15" height="8" viewBox="0 0 15 8" fill="currentColor" stroke="currentColor" class="ionicon" xmlns="http://www.w3.org/2000/svg">
<path d="M0.185794 0.185832C0.304826 0.0668431 0.466241 -6.34032e-07 0.634546 -6.26675e-07C0.802853 -6.19318e-07 0.964268 0.0668431 1.0833 0.185832L7.49004 6.59257L13.8961 0.185833C14.0159 0.0704949 14.1762 0.00675739 14.3424 0.00832352C14.5087 0.00988965 14.6677 0.0766343 14.7853 0.194208C14.9029 0.311781 14.9696 0.470795 14.9712 0.637061C14.9727 0.803328 14.909 0.96357 14.7937 1.08334L8.0605 7.814C7.98663 7.88801 7.8956 7.94259 7.79552 7.97286C7.69544 8.00314 7.58942 8.00817 7.48692 7.98751C7.38446 8.00804 7.27852 8.00288 7.17854 7.9725C7.07856 7.94211 6.98767 7.88744 6.91396 7.81338L0.185794 1.08334C0.0668048 0.964306 -3.81821e-05 0.80289 -3.81747e-05 0.634584C-3.81674e-05 0.466279 0.0668049 0.304863 0.185794 0.185832Z"/>
</svg>
