<svg width="24" height="24" viewBox="0 0 24 24" fill="none" stroke="currentColor" class="ionicon" xmlns="http://www.w3.org/2000/svg">
	<rect x="0.5" y="0.5" width="23" height="23" rx="1.5"/>
	<rect x="2.5" y="6.5" width="3" height="3" rx="0.5"/>
	<rect x="2.5" y="18.5" width="3" height="3" rx="0.5"/>
	<rect x="2.5" y="12.5" width="3" height="3" rx="0.5"/>
	<rect x="7.5" y="6.5" width="3" height="3" rx="0.5"/>
	<rect x="7.5" y="18.5" width="3" height="3" rx="0.5"/>
	<rect x="7.5" y="12.5" width="3" height="3" rx="0.5"/>
	<rect x="12.5" y="6.5" width="3" height="3" rx="0.5"/>
	<rect x="12.5" y="18.5" width="3" height="3" rx="0.5"/>
	<rect x="12.5" y="12.5" width="3" height="3" rx="0.5"/>
	<rect x="17.5" y="6.5" width="3" height="3" rx="0.5"/>
	<rect x="17.5" y="18.5" width="3" height="3" rx="0.5"/>
	<rect x="17.5" y="12.5" width="3" height="3" rx="0.5"/>
	<path d="M0.5 4.5H23.5" stroke-linecap="round" stroke-linejoin="round"/>
</svg>
