<svg id="info" xmlns="http://www.w3.org/2000/svg" width="30" height="30" viewBox="0 0 30 30" fill="currentColor" stroke="none" class="ionicon">
  <g id="Сгруппировать_278" data-name="Сгруппировать 278">
    <g id="Сгруппировать_277" data-name="Сгруппировать 277">
      <path id="Контур_447" data-name="Контур 447" d="M25.607,4.393A15,15,0,1,0,4.393,25.607,15,15,0,1,0,25.607,4.393ZM15,28.8A13.8,13.8,0,1,1,28.8,15,13.82,13.82,0,0,1,15,28.8Z"/>
    </g>
  </g>
  <g id="Сгруппировать_284" data-name="Сгруппировать 284" transform="translate(12.908 10.13)">
    <g id="Сгруппировать_283" data-name="Сгруппировать 283">
      <path id="Контур_450" data-name="Контур 450" d="M222.395,172.877a2.094,2.094,0,0,0-2.092,2.092v10.4a2.092,2.092,0,0,0,4.183,0v-10.4A2.094,2.094,0,0,0,222.395,172.877Zm.9,12.49a.9.9,0,0,1-1.793,0v-10.4a.9.9,0,1,1,1.793,0Z" transform="translate(-220.303 -172.877)"/>
    </g>
  </g>
  <g id="Сгруппировать_286" data-name="Сгруппировать 286" transform="translate(12.908 5.289)">
    <g id="Сгруппировать_285" data-name="Сгруппировать 285">
      <path id="Контур_451" data-name="Контур 451" d="M223.873,90.875a2.092,2.092,0,1,0,.613,1.48A2.108,2.108,0,0,0,223.873,90.875Zm-.844,2.113a.9.9,0,1,1,.262-.634A.905.905,0,0,1,223.029,92.988Z" transform="translate(-220.303 -90.263)"/>
    </g>
  </g>
</svg>
