<svg xmlns="http://www.w3.org/2000/svg" width="30" height="30" viewBox="0 0 30 30" fill="currentColor" class="ionicon">
  <g id="noise" transform="translate(0 -0.005)">
    <path id="Контур_535" data-name="Контур 535" d="M2.531,41.7a4.4,4.4,0,0,0,5.531.559L11.1,45.3a.879.879,0,0,0,1.243,0l2.486-2.486a.879.879,0,0,0,0-1.243L11.86,38.6c5.929-5.614,12.035-6,13.937-6.67a.879.879,0,0,0,.408-1.474L12.533,16.78a.879.879,0,0,0-1.474.408c-.646,1.805-1.075,8.356-7.133,14.414L1.288,34.24a4.392,4.392,0,0,0,0,6.215Zm9.193,1.736L9.367,41.076l1.243-1.243,2.357,2.357ZM5.631,32.369a25.7,25.7,0,0,0,5.685-9.347l8.647,8.647a25.7,25.7,0,0,0-9.347,5.685Zm6.756-13.248L23.865,30.6c-1.209.3-1.6.4-1.988.5l-9.988-9.988c.095-.368.279-1.112.5-1.988ZM2.531,35.483,4.4,33.618,9.367,38.59,7.5,40.454a2.64,2.64,0,0,1-3.729,0L2.531,39.212a2.635,2.635,0,0,1,0-3.729Z" transform="translate(0 -15.55)"/>
    <path id="Контур_536" data-name="Контур 536" d="M301.9,5.339a.879.879,0,0,0,.879-.879V.886a.879.879,0,1,0-1.758,0V4.46A.879.879,0,0,0,301.9,5.339Z" transform="translate(-283.38 -0.002)"/>
    <path id="Контур_537" data-name="Контур 537" d="M361.5,7a.879.879,0,0,0,1.179-.393l1.212-2.425.9.9a.879.879,0,0,0,1.4-.223l1.816-3.574a.879.879,0,1,0-1.567-.8L365.174,2.98l-.9-.9a.879.879,0,0,0-1.408.228l-1.758,3.516A.879.879,0,0,0,361.5,7Z" transform="translate(-339.862 0)"/>
    <path id="Контур_538" data-name="Контур 538" d="M394.33,120.383a.879.879,0,0,0-1.3-.061l-1.758,1.758a.879.879,0,0,0,1.243,1.243l1.075-1.075,1.142,1.379a.879.879,0,0,0,1.352,0l1.816-2.18a.879.879,0,1,0-1.35-1.125l-1.139,1.368Z" transform="translate(-368.106 -112.971)"/>
  </g>
</svg>
