<svg width="26" height="27" viewBox="0 0 26 27" fill="none" xmlns="http://www.w3.org/2000/svg">
<path d="M10.481 17.7025H5.0633C3.70887 17.6855 1 16.7636 1 13.2118C1 9.66004 4.00985 8.63601 5.51478 8.56797C5.43117 7.85353 5.61511 6.29198 7.01971 5.76126C8.42431 5.23053 9.57808 5.98239 9.9794 6.42466C10.4476 4.50249 12.4274 0.729585 16.6011 1.01536C20.7747 1.30113 23.3231 4.17929 22.6709 8.56797C24.4267 9.18034 25.8313 12.7423 24.4267 14.9469C22.6709 17.7025 20.9654 17.7025 20.0122 17.7025C19.2497 17.7025 17.9221 17.7025 17.3535 17.7025M13.7417 9.02725V25M13.7417 25L18.4572 20.2031M13.7417 25L9.02628 20.2031" stroke="white" stroke-width="1.5"/>
</svg>
